<svg width="512" height="512" viewBox="0 0 512 512" fill="none" xmlns="http://www.w3.org/2000/svg">
  <!-- Background Circle -->
  <circle cx="256" cy="256" r="240" fill="#00a8ff"/>
  
  <!-- Heart with Pulse -->
  <path d="M256 400C256 400 140 310 140 220C140 180 165 155 195 155C215 155 235 165 256 185C277 165 297 155 317 155C347 155 372 180 372 220C372 310 256 400 256 400Z" fill="white"/>
  
  <!-- Pulse Line -->
  <path d="M180 256L210 256L230 220L250 290L270 240L290 256L330 256" stroke="white" stroke-width="12" stroke-linecap="round" stroke-linejoin="round" fill="none" opacity="0.9"/>
  
  <!-- Medical Cross -->
  <rect x="240" y="120" width="32" height="90" rx="4" fill="white"/>
  <rect x="210" y="150" width="92" height="32" rx="4" fill="white"/>
</svg>
